<svg width="406" height="306" viewBox="0 0 406 306" fill="none" xmlns="http://www.w3.org/2000/svg">
<path d="M220.773 43.187H192.373C175.175 43.187 161.233 57.129 161.233 74.3272V89.7654C161.233 106.964 175.175 120.906 192.373 120.906H220.773C237.971 120.906 251.913 106.964 251.913 89.7654V74.3272C251.913 57.129 237.971 43.187 220.773 43.187Z" fill="#8487F8"/>
<path d="M179.98 74.8447C181.693 68.8054 185.67 63.6603 191.084 60.4824C196.495 57.3623 202.703 55.8978 208.938 56.2702C214.32 56.3708 219.548 58.0897 223.94 61.2031C228.203 64.4206 231.166 69.5768 231.045 74.9157C230.89 77.254 230.267 79.5374 229.212 81.6299C228.157 83.7224 226.692 85.5812 224.904 87.0957C221.313 90.0974 217.079 92.2331 212.531 93.338C207.154 94.9579 201.461 95.2263 195.956 94.1195C193.213 93.5594 190.607 92.4643 188.287 90.8969C185.968 89.3295 183.979 87.3205 182.436 84.9845C179.503 80.2343 179.066 73.8195 181.969 69.0592" fill="#231F20"/>
<path d="M202.239 95.2668C200.071 95.2752 197.909 95.0403 195.794 94.5664C192.982 93.9922 190.311 92.8681 187.935 91.2586C185.56 89.6491 183.525 87.586 181.949 85.1878C180.094 82.143 179.238 78.5936 179.503 75.0378C179.473 74.9421 179.473 74.8392 179.503 74.7435C179.503 74.6521 179.503 74.5608 179.574 74.4694C179.798 72.451 180.449 70.5032 181.482 68.755C181.551 68.6469 181.658 68.5684 181.782 68.5346C181.906 68.5009 182.038 68.5143 182.152 68.5723C184.321 65.0779 187.293 62.1515 190.82 60.0361C196.315 56.8495 202.629 55.3592 208.968 55.7528C214.455 55.866 219.78 57.635 224.244 60.8278C228.893 64.3397 231.664 69.7598 231.501 74.9668C231.342 77.3666 230.7 79.7097 229.616 81.8563C228.531 84.0029 227.025 85.9092 225.188 87.4614C221.548 90.5294 217.242 92.7051 212.612 93.8153C209.235 94.7602 205.746 95.2483 202.239 95.2668ZM180.548 74.6521C180.175 78.1434 180.971 81.6599 182.812 84.6499C184.314 86.9348 186.253 88.9002 188.518 90.4331C190.782 91.966 193.327 93.0361 196.007 93.5819C201.432 94.671 207.042 94.4025 212.338 92.8003C216.815 91.7404 220.984 89.6557 224.518 86.7103C226.253 85.2494 227.675 83.4539 228.701 81.4309C229.726 79.408 230.334 77.1992 230.486 74.9363C230.649 70.0542 228.02 64.9589 223.635 61.6297C218.814 57.9858 212.967 56.9911 208.918 56.8084C202.777 56.4145 196.657 57.856 191.338 60.9496C186.14 63.9906 182.285 68.8859 180.548 74.6521Z" fill="#231F20"/>
<path d="M249.69 135.278C251.01 135.278 252.319 135.278 253.639 135.278C253.893 135.335 254.159 135.322 254.406 135.24C254.654 135.158 254.874 135.009 255.044 134.811C255.213 134.612 255.325 134.371 255.367 134.113C255.409 133.856 255.38 133.592 255.283 133.349C255.12 129.675 255.171 123.778 252.542 120.824C249.914 117.871 245.021 118.175 243.742 113.415C242.93 110.37 244.443 107.264 245.539 104.28C246.635 101.296 247.214 97.6011 245.001 95.3579C243.661 93.9877 241.519 93.4802 240.474 91.8663C238.505 88.8213 241.773 85.1166 242.007 81.5133C242.24 77.9101 239.5 75.0478 236.668 72.9569C227.533 66.1868 220.428 59.6807 208.106 59.569C199.742 59.4878 190.221 62.4212 184.131 68.3691C181.584 70.8457 179.95 73.3121 176.935 75.3726C173.21 77.9101 170.175 80.7927 170.348 85.685C170.429 88.192 171.363 90.76 170.591 93.1452C169.82 95.5305 167.394 97.053 166.765 99.4382C165.628 103.722 168.856 108.462 167.78 113.263C167.447 114.913 166.814 116.489 165.912 117.911C164.881 119.325 163.674 120.6 162.319 121.707C159.262 124.27 156.565 127.233 154.301 130.518C153.576 131.658 152.961 132.865 152.463 134.121C152.723 134.096 152.985 134.096 153.245 134.121H200.138C216.784 134.121 233.024 135.217 249.67 135.217L249.69 135.278Z" fill="white"/>
<path d="M253.75 135.836H253.476H249.66C241.327 135.836 232.963 135.562 224.873 135.288C216.784 135.014 208.441 134.74 200.128 134.74H153.083C152.907 134.73 152.731 134.73 152.555 134.74C152.446 134.776 152.329 134.776 152.22 134.74C152.155 134.715 152.096 134.678 152.046 134.63C151.997 134.583 151.957 134.525 151.929 134.462C151.902 134.399 151.887 134.33 151.887 134.261C151.886 134.192 151.899 134.124 151.925 134.06C152.438 132.775 153.07 131.542 153.813 130.375C156.108 127.054 158.839 124.057 161.933 121.464L162.106 121.311C163.359 120.271 164.48 119.081 165.445 117.769C166.313 116.399 166.921 114.882 167.242 113.293C167.77 110.989 167.242 108.634 166.714 106.35C166.186 104.067 165.699 101.691 166.247 99.4483C166.675 98.1568 167.367 96.968 168.277 95.9567C169.024 95.117 169.627 94.1603 170.063 93.1249C170.44 91.5844 170.44 89.9761 170.063 88.4356C169.923 87.5785 169.828 86.7145 169.779 85.8473C169.607 80.5998 172.956 77.5751 176.6 75.0782C178.358 73.8097 179.95 72.3264 181.34 70.6629C182.081 69.8408 182.842 68.9882 183.725 68.1356C189.47 62.5226 198.778 59.0716 208.085 59.1833C219.189 59.2848 226.041 64.4511 233.958 70.4295L237.003 72.6828C240.829 75.5045 242.748 78.6205 242.555 81.696C242.381 83.1487 241.994 84.5679 241.408 85.9082C240.606 88.0499 239.845 90.0596 240.931 91.7242C241.55 92.5185 242.346 93.1579 243.255 93.5918C244.031 94.0105 244.75 94.5254 245.397 95.1244C248.046 97.8142 246.94 102.229 246.057 104.605C245.914 104.99 245.752 105.386 245.6 105.782C244.585 108.299 243.57 110.918 244.27 113.394C244.981 116.044 246.818 116.927 248.939 117.942C250.442 118.543 251.806 119.444 252.948 120.591C255.455 123.392 255.638 128.548 255.78 132.314V133.431C255.85 133.82 255.821 134.221 255.697 134.596C255.573 134.972 255.357 135.311 255.07 135.582C254.668 135.805 254.206 135.894 253.75 135.836ZM153.204 133.654H200.087C208.42 133.654 216.784 133.928 224.873 134.202C232.963 134.476 241.306 134.75 249.619 134.75C250.898 134.75 252.167 134.75 253.446 134.75H253.578C253.862 134.79 254.152 134.744 254.41 134.618C254.694 134.415 254.704 133.867 254.684 133.37V132.243C254.552 128.64 254.369 123.697 252.116 121.179C251.068 120.135 249.818 119.317 248.442 118.774C246.28 117.759 244.047 116.673 243.204 113.557C242.453 110.745 243.539 107.964 244.575 105.285C244.727 104.899 244.879 104.513 245.021 104.127C245.823 101.976 246.838 98.0375 244.595 95.7537C244.016 95.2129 243.368 94.7521 242.666 94.3835C241.622 93.8693 240.711 93.1187 240.007 92.1911C238.627 90.0799 239.52 87.7149 240.383 85.4312C240.91 84.1816 241.252 82.8617 241.398 81.5133C241.621 78.1029 238.738 75.2304 236.323 73.3933C235.308 72.632 234.293 71.8809 233.278 71.1298C225.503 65.2631 218.783 60.1983 208.024 60.0968H207.69C198.798 60.0968 189.917 63.3955 184.426 68.7547C183.573 69.587 182.812 70.4193 182.081 71.2313C180.655 72.9733 179.015 74.5284 177.199 75.8597C173.271 78.5393 170.683 81.2392 170.835 85.7154C170.881 86.5419 170.973 87.3653 171.109 88.1818C171.515 89.8895 171.494 91.6709 171.048 93.3685C170.582 94.5207 169.923 95.5848 169.099 96.515C168.276 97.4139 167.644 98.4705 167.242 99.6209C166.704 101.651 167.191 103.762 167.709 106.026C168.226 108.289 168.825 110.898 168.236 113.435C167.888 115.147 167.231 116.78 166.298 118.256C165.286 119.641 164.106 120.896 162.786 121.991L162.613 122.144C159.599 124.682 156.937 127.611 154.696 130.852C154.125 131.745 153.626 132.682 153.204 133.654Z" fill="#231F20"/>
<path d="M248.361 262.813H160.918C151.428 197.782 147.378 155.355 157.132 145.134C160.411 141.713 165.973 139.206 171.901 137.379C180.046 135.075 188.4 133.583 196.839 132.923C202.298 132.448 207.798 132.953 213.079 134.415C216.946 135.623 226.051 136.506 235.237 139.419C244.422 142.332 253.923 147.387 258.033 156.867C264.134 170.975 248.361 262.813 248.361 262.813Z" fill="#8487F8"/>
<path d="M248.868 145.134C248.868 145.134 316.731 219.899 291.498 238.027C266.265 256.154 242.869 210.916 242.869 210.916L248.868 145.134Z" fill="#8487F8"/>
<path d="M283.581 222.02C283.486 222.019 283.393 221.992 283.313 221.942C283.232 221.892 283.167 221.82 283.124 221.736C275.278 205.496 253.009 177.258 252.786 176.984C252.744 176.932 252.713 176.873 252.694 176.809C252.675 176.744 252.669 176.677 252.676 176.611C252.683 176.544 252.703 176.48 252.735 176.421C252.767 176.363 252.81 176.311 252.862 176.269C252.914 176.227 252.974 176.195 253.038 176.177C253.102 176.158 253.169 176.152 253.236 176.159C253.302 176.166 253.366 176.186 253.425 176.218C253.484 176.25 253.536 176.293 253.578 176.345C253.801 176.629 276.151 204.927 284.028 221.289C284.057 221.349 284.074 221.414 284.079 221.481C284.083 221.548 284.074 221.614 284.052 221.678C284.03 221.741 283.996 221.799 283.952 221.849C283.908 221.899 283.854 221.94 283.794 221.969C283.727 221.999 283.655 222.016 283.581 222.02Z" fill="#231F20"/>
<path d="M264.042 237.174C263.929 237.169 263.819 237.13 263.728 237.062C263.525 236.9 243.245 220.568 237.409 195.112C237.392 195.047 237.389 194.98 237.399 194.914C237.409 194.848 237.432 194.785 237.467 194.728C237.502 194.671 237.549 194.622 237.603 194.583C237.657 194.545 237.719 194.517 237.784 194.503C237.915 194.473 238.052 194.495 238.166 194.565C238.28 194.636 238.362 194.748 238.393 194.879C244.159 219.98 264.164 236.108 264.367 236.27C264.472 236.354 264.539 236.476 264.554 236.609C264.569 236.742 264.531 236.876 264.448 236.981C264.399 237.04 264.337 237.088 264.267 237.122C264.196 237.155 264.12 237.173 264.042 237.174Z" fill="#231F20"/>
<path d="M222.722 93.1755C224.386 84.6597 238.667 83.0255 237.612 93.1146C237.399 96.6079 235.961 99.9143 233.552 102.453C231.035 104.848 227.066 105.883 223.94 104.351" fill="white"/>
<path d="M227.117 105.599C225.919 105.607 224.736 105.343 223.655 104.828C223.54 104.76 223.454 104.652 223.416 104.524C223.377 104.396 223.389 104.258 223.448 104.138C223.508 104.018 223.61 103.925 223.735 103.878C223.86 103.831 223.999 103.833 224.122 103.884C226.883 105.244 230.588 104.493 233.136 102.077C235.907 99.4484 236.82 95.7233 237.094 93.0539C237.459 89.5826 235.835 87.2277 232.76 86.7608C228.964 86.2026 224.122 88.73 223.229 93.2772C223.217 93.3444 223.192 93.4086 223.154 93.4658C223.117 93.5229 223.068 93.5719 223.011 93.6099C222.954 93.6478 222.89 93.6738 222.823 93.6864C222.756 93.699 222.687 93.6979 222.62 93.6831C222.553 93.671 222.488 93.6455 222.431 93.6082C222.373 93.5708 222.323 93.5224 222.285 93.4658C222.246 93.4091 222.219 93.3453 222.205 93.2781C222.191 93.2108 222.191 93.1415 222.204 93.0741C223.219 87.9991 228.649 85.0861 232.912 85.7256C235.775 86.162 238.647 88.3341 238.139 93.1655C237.835 96.0075 236.861 99.9863 233.856 102.838C232.041 104.58 229.632 105.567 227.117 105.599Z" fill="#231F20"/>
<path d="M190.82 91.9475C189.744 83.3403 175.595 80.7825 175.961 90.8513C175.949 94.3594 177.174 97.7594 179.422 100.453C181.777 103.021 185.654 104.33 188.882 103.021" fill="white"/>
<path d="M186.212 104.057C184.869 104.026 183.547 103.723 182.325 103.164C181.104 102.606 180.009 101.804 179.107 100.809C176.316 97.7637 175.615 93.7037 175.514 90.8718C175.341 86.01 178.356 84.0409 181.239 83.7668C185.532 83.4217 190.769 86.6596 191.389 91.8868C191.418 91.9615 191.43 92.0419 191.424 92.122C191.418 92.202 191.393 92.2796 191.352 92.3488C191.312 92.418 191.256 92.4769 191.189 92.5212C191.122 92.5655 191.045 92.5938 190.966 92.6042C190.886 92.6145 190.805 92.6066 190.729 92.5809C190.653 92.5553 190.584 92.5126 190.527 92.4561C190.469 92.3997 190.426 92.3309 190.399 92.2551C190.373 92.1794 190.364 92.0985 190.374 92.0188C189.805 87.4208 185.146 84.5585 181.32 84.9138C178.214 85.1574 176.438 87.4005 176.559 90.8921C176.651 93.5717 177.3 97.3475 179.878 100.159C182.254 102.747 185.908 103.752 188.75 102.595C188.884 102.543 189.034 102.546 189.166 102.604C189.299 102.662 189.402 102.77 189.455 102.905C189.507 103.039 189.504 103.189 189.446 103.321C189.388 103.454 189.28 103.558 189.145 103.61C188.206 103.95 187.21 104.102 186.212 104.057Z" fill="#231F20"/>
<path d="M235.226 139.419C230.395 137.959 225.476 136.807 220.499 135.968L220.56 135.836L220.296 129.838L219.677 115.881L219.088 102.849L193.479 101.956L192.261 112.562L191.886 115.993L189.856 133.664C183.782 134.424 177.778 135.666 171.901 137.379C170.6 141.874 170.279 146.596 170.959 151.225C171.64 155.855 173.307 160.284 175.847 164.214C178.386 168.144 181.74 171.483 185.681 174.005C189.623 176.528 194.059 178.175 198.692 178.835C203.324 179.495 208.045 179.153 212.534 177.832C217.023 176.511 221.176 174.242 224.712 171.178C228.249 168.114 231.087 164.327 233.034 160.072C234.98 155.817 235.991 151.193 235.998 146.514C235.996 144.128 235.738 141.75 235.226 139.419Z" fill="white"/>
<path d="M203.305 179.715C194.497 179.707 186.052 176.206 179.823 169.98C173.593 163.754 170.087 155.311 170.074 146.504C170.07 143.367 170.518 140.246 171.403 137.237C171.427 137.154 171.471 137.078 171.531 137.016C171.592 136.954 171.666 136.908 171.748 136.882C177.524 135.198 183.422 133.966 189.389 133.197L192.962 101.895C192.979 101.765 193.043 101.645 193.142 101.559C193.241 101.473 193.369 101.427 193.5 101.428L219.108 102.321C219.24 102.323 219.366 102.376 219.461 102.469C219.555 102.561 219.61 102.686 219.616 102.818L221.077 135.542C225.913 136.369 230.693 137.498 235.389 138.922C235.475 138.951 235.551 139.002 235.612 139.069C235.672 139.137 235.714 139.219 235.734 139.308C236.806 144.162 236.775 149.195 235.644 154.036C234.513 158.877 232.31 163.402 229.199 167.28C226.087 171.157 222.146 174.286 217.664 176.439C213.183 178.591 208.276 179.71 203.305 179.715ZM172.327 137.775C171.085 142.199 170.805 146.837 171.505 151.378C172.206 155.919 173.871 160.258 176.389 164.101C178.906 167.945 182.218 171.205 186.101 173.662C189.984 176.119 194.348 177.715 198.899 178.344C203.451 178.973 208.084 178.62 212.488 177.309C216.892 175.998 220.963 173.758 224.429 170.742C227.895 167.725 230.675 164.001 232.581 159.82C234.487 155.639 235.476 151.099 235.48 146.504C235.48 144.26 235.248 142.022 234.79 139.825C230.068 138.422 225.265 137.306 220.407 136.486C220.328 136.469 220.253 136.434 220.188 136.385C220.123 136.336 220.07 136.274 220.032 136.202C219.994 136.128 219.975 136.046 219.975 135.963C219.975 135.88 219.994 135.799 220.032 135.725L218.591 103.346L193.946 102.494L190.384 133.715C190.369 133.831 190.316 133.939 190.233 134.021C190.151 134.104 190.043 134.157 189.927 134.172C183.976 134.918 178.092 136.122 172.327 137.775Z" fill="#231F20"/>
<path d="M205.03 118.652L207.314 118.733C209.89 118.823 212.459 118.404 214.874 117.501C217.289 116.597 219.502 115.227 221.387 113.468C223.272 111.71 224.792 109.597 225.861 107.25C226.929 104.904 227.525 102.37 227.614 99.7936V98.7786C227.715 95.7336 227.776 92.6886 227.898 89.6436C227.979 87.6136 228.913 85.0659 227.391 83.3404C226.496 82.4776 225.467 81.7647 224.346 81.2292C218.403 77.7595 213.758 72.4411 211.12 66.0854C206.644 72.2461 200.256 76.7533 192.952 78.9049C191.125 79.4327 189.186 79.8387 187.724 81.0465C184.456 83.7566 186.415 87.441 186.293 90.9022L186.039 98.403C185.873 103.607 187.78 108.663 191.341 112.461C194.903 116.258 199.827 118.485 205.03 118.652Z" fill="white"/>
<path d="M207.953 119.271H207.243L204.959 119.2C199.618 119.007 194.572 116.704 190.926 112.796C187.281 108.888 185.334 103.694 185.512 98.3523L185.776 90.8514C185.778 89.8756 185.7 88.9013 185.542 87.9384C185.197 85.3806 184.842 82.7314 187.39 80.6202C188.782 79.6235 190.37 78.9318 192.048 78.5902L192.799 78.3771C199.984 76.2829 206.271 71.8633 210.674 65.8114C210.728 65.7375 210.8 65.679 210.884 65.6416C210.968 65.6042 211.06 65.5893 211.151 65.5982C211.243 65.6074 211.332 65.6415 211.407 65.6969C211.482 65.7523 211.541 65.8269 211.577 65.9129C214.162 72.1872 218.747 77.4322 224.62 80.8334L225.036 81.077C226.058 81.5924 226.985 82.2789 227.776 83.107C229.076 84.5787 228.791 86.4971 228.578 88.182C228.494 88.7065 228.436 89.235 228.406 89.7654C228.335 91.5112 228.294 93.257 228.243 95.0028C228.243 96.302 228.172 97.591 228.121 98.8902V99.9052C227.909 105.112 225.692 110.035 221.933 113.645C218.174 117.254 213.165 119.27 207.953 119.271ZM205.03 118.135L207.324 118.206C209.832 118.294 212.333 117.887 214.684 117.008C217.035 116.129 219.189 114.796 221.024 113.084C222.86 111.373 224.34 109.316 225.38 107.032C226.42 104.748 227 102.281 227.086 99.7733V98.7583L227.208 94.881C227.208 93.1352 227.299 91.3792 227.37 89.6334C227.402 89.069 227.463 88.5066 227.553 87.9485C227.776 86.3347 227.979 84.8122 227.005 83.7058C226.277 82.9887 225.437 82.3955 224.518 81.9499L224.102 81.7164C218.302 78.3529 213.707 73.2503 210.968 67.1309C206.455 72.9867 200.195 77.2529 193.094 79.3109L192.333 79.524C190.797 79.8359 189.342 80.4613 188.059 81.3612C185.948 83.107 186.243 85.2486 186.578 87.7354C186.751 88.7579 186.832 89.794 186.821 90.8311L186.557 98.332C186.469 100.845 186.877 103.352 187.758 105.707C188.639 108.063 189.975 110.222 191.691 112.061C193.406 113.9 195.467 115.383 197.756 116.425C200.045 117.467 202.517 118.048 205.03 118.135Z" fill="#231F20"/>
<path d="M207.253 101.58C205.895 101.584 204.539 101.496 203.193 101.316C203.056 101.296 202.933 101.223 202.85 101.113C202.766 101.003 202.729 100.865 202.746 100.728C202.767 100.591 202.84 100.468 202.95 100.384C203.06 100.301 203.198 100.263 203.335 100.281C205.186 100.522 207.055 100.587 208.918 100.474C208.962 100.474 209.006 100.462 209.043 100.439C209.081 100.415 209.111 100.382 209.131 100.342C209.973 98.9817 207.821 92.4553 206.258 88.6592C206.232 88.5925 206.22 88.5214 206.221 88.4499C206.223 88.3784 206.238 88.3078 206.267 88.2423C206.296 88.1768 206.337 88.1176 206.389 88.0681C206.44 88.0186 206.501 87.9797 206.568 87.9537C206.635 87.9277 206.706 87.9151 206.777 87.9166C206.849 87.9181 206.919 87.9337 206.985 87.9624C207.05 87.9912 207.109 88.0325 207.159 88.0842C207.208 88.1358 207.247 88.1967 207.273 88.2633C207.984 89.9888 211.445 98.6772 210.075 100.9C209.969 101.078 209.821 101.228 209.644 101.336C209.467 101.444 209.267 101.507 209.06 101.519C208.42 101.56 207.821 101.58 207.253 101.58Z" fill="#231F20"/>
<path d="M157.132 145.134C157.132 145.134 89.2695 219.899 114.502 238.027C139.735 256.154 163.131 210.916 163.131 210.916L157.132 145.134Z" fill="#8487F8"/>
<path d="M229.025 148.432C227.527 150.339 225.532 151.797 223.26 152.644C223.171 153.254 222.978 153.845 222.691 154.39C221.24 157.141 217.961 157.435 215.414 156.298C214.12 155.744 213.004 154.845 212.186 153.7C210.63 154.943 208.8 155.796 206.847 156.187C206.857 156.861 206.73 157.53 206.475 158.155C206.219 158.779 205.84 159.345 205.361 159.819C204.881 160.293 204.31 160.665 203.683 160.913C203.056 161.161 202.385 161.28 201.711 161.262C200.557 161.307 199.425 160.941 198.516 160.229C197.607 159.517 196.98 158.505 196.748 157.374C196.109 157.419 195.467 157.378 194.84 157.252C194.517 157.192 194.201 157.1 193.896 156.978C193.242 156.758 192.616 156.466 192.028 156.106C191.612 155.82 191.216 155.508 190.84 155.172C188.584 154.582 186.653 153.122 185.471 151.112C184.987 150.303 184.74 149.374 184.761 148.432H151.428C153.332 160.276 159.392 171.055 168.523 178.836C177.654 186.616 189.258 190.89 201.254 190.89C213.251 190.89 224.855 186.616 233.985 178.836C243.116 171.055 249.177 160.276 251.081 148.432H229.025Z" fill="#8487F8"/>
<path d="M201.254 191.418C189.121 191.464 177.373 187.162 168.139 179.291C158.905 171.42 152.796 160.501 150.921 148.514C150.909 148.44 150.914 148.364 150.935 148.292C150.956 148.22 150.993 148.154 151.042 148.097C151.09 148.042 151.149 147.998 151.216 147.968C151.283 147.938 151.355 147.924 151.428 147.925H184.73C184.798 147.923 184.866 147.936 184.929 147.962C184.992 147.989 185.049 148.028 185.096 148.077C185.143 148.123 185.18 148.178 185.205 148.24C185.229 148.301 185.24 148.367 185.238 148.432C185.214 149.281 185.432 150.119 185.867 150.848C186.995 152.729 188.818 154.089 190.942 154.634C191.025 154.65 191.102 154.689 191.165 154.746C191.523 155.069 191.903 155.368 192.302 155.639C192.768 155.93 193.265 156.168 193.784 156.349L194.058 156.461C194.334 156.569 194.619 156.65 194.911 156.705C195.496 156.818 196.092 156.859 196.687 156.826C196.808 156.816 196.929 156.849 197.027 156.92C197.126 156.99 197.196 157.094 197.225 157.212C197.428 158.232 197.99 159.146 198.81 159.787C199.629 160.428 200.652 160.753 201.691 160.704C202.296 160.722 202.898 160.617 203.462 160.397C204.025 160.176 204.538 159.844 204.971 159.42C205.403 158.997 205.745 158.49 205.977 157.931C206.208 157.372 206.325 156.772 206.319 156.167C206.324 156.053 206.366 155.945 206.44 155.858C206.513 155.772 206.614 155.712 206.725 155.69C208.601 155.314 210.359 154.492 211.851 153.294C211.961 153.211 212.1 153.175 212.237 153.193C212.305 153.201 212.371 153.224 212.43 153.259C212.489 153.294 212.541 153.34 212.582 153.396C213.356 154.47 214.409 155.312 215.627 155.832C217.88 156.847 220.915 156.695 222.255 154.157C222.513 153.658 222.688 153.119 222.772 152.563C222.787 152.472 222.827 152.386 222.888 152.316C222.949 152.246 223.029 152.195 223.117 152.168C225.299 151.353 227.211 149.948 228.639 148.108C228.689 148.053 228.75 148.009 228.819 147.979C228.887 147.949 228.96 147.934 229.035 147.935H251.091C251.164 147.936 251.235 147.951 251.302 147.981C251.368 148.011 251.428 148.054 251.477 148.108C251.522 148.166 251.556 148.233 251.575 148.304C251.594 148.376 251.599 148.45 251.588 148.524C249.71 160.509 243.601 171.426 234.367 179.295C225.133 187.164 213.386 191.464 201.254 191.418ZM152.027 148.94C154.033 160.541 160.073 171.061 169.079 178.644C178.086 186.226 189.481 190.384 201.254 190.384C213.028 190.384 224.423 186.226 233.43 178.644C242.436 171.061 248.475 160.541 250.482 148.94H229.258C227.784 150.744 225.873 152.142 223.706 153C223.595 153.554 223.407 154.091 223.148 154.593C221.504 157.71 217.88 157.892 215.211 156.735C213.995 156.213 212.925 155.401 212.095 154.37C210.669 155.427 209.042 156.18 207.314 156.583C207.213 157.987 206.574 159.298 205.53 160.244C204.486 161.189 203.119 161.696 201.711 161.658C200.516 161.701 199.341 161.344 198.372 160.643C197.403 159.943 196.696 158.939 196.362 157.791C195.821 157.787 195.281 157.736 194.748 157.638C194.401 157.574 194.061 157.475 193.733 157.344L193.449 157.232C192.858 157.024 192.292 156.749 191.764 156.41C191.361 156.14 190.978 155.841 190.617 155.517C188.29 154.893 186.296 153.39 185.055 151.325C184.603 150.585 184.342 149.745 184.294 148.879L152.027 148.94Z" fill="#231F20"/>
<path d="M229.025 148.432C227.527 150.339 225.532 151.797 223.26 152.644C223.171 153.254 222.978 153.845 222.691 154.39C221.24 157.141 217.961 157.435 215.414 156.298C214.12 155.744 213.004 154.845 212.186 153.7C210.631 154.943 208.8 155.796 206.847 156.187C206.857 156.861 206.73 157.53 206.475 158.155C206.22 158.779 205.841 159.345 205.361 159.819C204.881 160.293 204.311 160.665 203.683 160.913C203.056 161.161 202.385 161.28 201.711 161.262C200.557 161.307 199.425 160.941 198.516 160.229C197.607 159.517 196.98 158.505 196.748 157.374C196.109 157.419 195.467 157.378 194.84 157.252C194.517 157.192 194.201 157.1 193.896 156.978C193.242 156.758 192.616 156.466 192.028 156.106C191.613 155.82 191.216 155.508 190.841 155.172C188.584 154.582 186.653 153.122 185.471 151.112C184.987 150.303 184.74 149.374 184.761 148.432H158.716C160.581 158.349 165.853 167.301 173.619 173.743C181.386 180.185 191.159 183.711 201.249 183.711C211.34 183.711 221.113 180.185 228.879 173.743C236.646 167.301 241.918 158.349 243.783 148.432H229.025Z" fill="#D1D3D4"/>
<path d="M201.254 184.231C191.041 184.238 181.148 180.671 173.288 174.149C165.428 167.628 160.097 158.563 158.218 148.524C158.205 148.451 158.208 148.376 158.227 148.304C158.246 148.232 158.28 148.165 158.327 148.108C158.375 148.051 158.434 148.005 158.501 147.973C158.568 147.942 158.642 147.925 158.716 147.925H184.73C184.798 147.923 184.866 147.936 184.929 147.962C184.992 147.989 185.049 148.028 185.096 148.077C185.143 148.123 185.18 148.178 185.205 148.24C185.229 148.301 185.241 148.367 185.238 148.432C185.214 149.281 185.432 150.119 185.867 150.848C186.995 152.729 188.818 154.089 190.942 154.634C191.025 154.65 191.102 154.689 191.165 154.746C191.523 155.069 191.903 155.368 192.302 155.639C192.768 155.93 193.265 156.168 193.784 156.349L194.058 156.461C194.334 156.569 194.62 156.65 194.911 156.705C195.496 156.818 196.092 156.859 196.687 156.826C196.808 156.816 196.929 156.849 197.028 156.92C197.126 156.99 197.196 157.094 197.225 157.212C197.428 158.232 197.99 159.146 198.81 159.787C199.629 160.428 200.652 160.753 201.691 160.704C202.296 160.722 202.898 160.617 203.462 160.397C204.025 160.176 204.539 159.844 204.971 159.42C205.403 158.997 205.745 158.49 205.977 157.931C206.209 157.372 206.325 156.772 206.319 156.167C206.324 156.053 206.366 155.945 206.44 155.858C206.514 155.772 206.614 155.712 206.725 155.69C208.601 155.314 210.359 154.492 211.851 153.294C211.961 153.211 212.1 153.175 212.237 153.193C212.305 153.201 212.371 153.224 212.43 153.259C212.49 153.294 212.541 153.34 212.582 153.396C213.356 154.47 214.409 155.312 215.627 155.832C217.88 156.847 220.915 156.695 222.255 154.157C222.513 153.658 222.688 153.119 222.772 152.563C222.787 152.472 222.828 152.386 222.889 152.316C222.95 152.246 223.029 152.195 223.118 152.168C225.3 151.353 227.212 149.948 228.639 148.108C228.689 148.053 228.75 148.009 228.819 147.979C228.887 147.949 228.961 147.934 229.035 147.935H243.793C243.869 147.934 243.943 147.95 244.012 147.982C244.08 148.013 244.141 148.06 244.189 148.118C244.235 148.176 244.268 148.243 244.287 148.314C244.307 148.386 244.311 148.461 244.301 148.534C242.42 158.573 237.086 167.637 229.224 174.157C221.363 180.676 211.468 184.24 201.254 184.231ZM159.355 148.94C161.316 158.612 166.561 167.308 174.201 173.555C181.841 179.802 191.406 183.215 201.275 183.215C211.144 183.215 220.709 179.802 228.349 173.555C235.989 167.308 241.234 158.612 243.194 148.94H229.258C227.784 150.744 225.873 152.142 223.706 153C223.595 153.554 223.407 154.091 223.148 154.593C221.504 157.71 217.88 157.892 215.211 156.735C213.995 156.213 212.925 155.401 212.095 154.37C210.669 155.427 209.042 156.18 207.314 156.583C207.213 157.987 206.574 159.298 205.53 160.244C204.487 161.189 203.119 161.696 201.711 161.658C200.516 161.701 199.341 161.344 198.372 160.643C197.403 159.943 196.696 158.939 196.362 157.791C195.821 157.787 195.281 157.736 194.748 157.638C194.401 157.574 194.061 157.475 193.733 157.344L193.449 157.232C192.858 157.024 192.292 156.749 191.764 156.41C191.362 156.14 190.978 155.841 190.617 155.517C188.29 154.893 186.296 153.39 185.055 151.325C184.604 150.585 184.342 149.745 184.294 148.879L159.355 148.94Z" fill="#231F20"/>
<path d="M229.025 148.432C227.527 150.339 225.532 151.797 223.26 152.644C223.171 153.254 222.978 153.845 222.691 154.39C221.24 157.141 217.961 157.435 215.414 156.298C214.12 155.744 213.004 154.845 212.186 153.7C210.631 154.943 208.8 155.796 206.847 156.187C206.857 156.861 206.73 157.53 206.475 158.155C206.22 158.779 205.841 159.345 205.361 159.819C204.881 160.293 204.311 160.665 203.683 160.913C203.056 161.161 202.385 161.28 201.711 161.262C200.557 161.307 199.425 160.941 198.516 160.229C197.607 159.517 196.98 158.505 196.748 157.374C196.109 157.419 195.468 157.378 194.84 157.252C194.517 157.192 194.201 157.1 193.896 156.978C193.242 156.758 192.616 156.466 192.028 156.106C191.613 155.82 191.216 155.508 190.841 155.172C188.584 154.582 186.653 153.122 185.471 151.112C184.987 150.303 184.74 149.374 184.761 148.432H163.344C165.177 157.129 169.944 164.932 176.846 170.532C183.749 176.131 192.366 179.187 201.254 179.187C210.143 179.187 218.76 176.131 225.663 170.532C232.565 164.932 237.332 157.129 239.165 148.432H229.025Z" fill="white"/>
<path d="M201.254 179.705C192.255 179.678 183.536 176.57 176.548 170.899C169.56 165.228 164.725 157.335 162.847 148.534C162.83 148.46 162.83 148.383 162.848 148.309C162.866 148.235 162.9 148.166 162.948 148.108C162.995 148.049 163.056 148.001 163.125 147.97C163.193 147.938 163.268 147.923 163.344 147.925H184.73C184.798 147.923 184.866 147.936 184.929 147.962C184.992 147.989 185.049 148.028 185.096 148.077C185.143 148.123 185.18 148.178 185.205 148.24C185.229 148.301 185.24 148.367 185.238 148.433C185.214 149.281 185.432 150.119 185.867 150.848C186.995 152.729 188.818 154.089 190.942 154.634C191.025 154.65 191.102 154.689 191.165 154.746C191.523 155.069 191.903 155.368 192.302 155.639C192.768 155.93 193.265 156.168 193.784 156.35L194.058 156.461C194.334 156.569 194.619 156.651 194.911 156.705C195.495 156.818 196.092 156.859 196.687 156.827C196.808 156.816 196.929 156.849 197.027 156.92C197.126 156.99 197.196 157.094 197.225 157.212C197.428 158.233 197.99 159.146 198.81 159.787C199.629 160.428 200.652 160.753 201.691 160.704C202.296 160.722 202.898 160.617 203.462 160.397C204.025 160.176 204.538 159.844 204.971 159.42C205.403 158.997 205.745 158.49 205.977 157.931C206.208 157.372 206.325 156.772 206.319 156.167C206.324 156.053 206.366 155.945 206.44 155.858C206.513 155.772 206.614 155.712 206.725 155.69C208.601 155.314 210.359 154.492 211.851 153.294C211.961 153.211 212.1 153.175 212.237 153.193C212.305 153.202 212.371 153.224 212.43 153.259C212.489 153.294 212.541 153.34 212.582 153.396C213.356 154.47 214.409 155.312 215.627 155.832C217.88 156.847 220.915 156.695 222.255 154.157C222.513 153.658 222.688 153.119 222.772 152.564C222.787 152.472 222.827 152.386 222.888 152.316C222.949 152.246 223.029 152.195 223.117 152.168C225.299 151.354 227.211 149.948 228.639 148.108C228.689 148.053 228.75 148.009 228.818 147.979C228.887 147.949 228.96 147.934 229.035 147.935H239.185C239.26 147.934 239.335 147.95 239.403 147.982C239.472 148.013 239.532 148.06 239.581 148.118C239.627 148.178 239.659 148.247 239.677 148.32C239.694 148.394 239.696 148.47 239.682 148.544C237.799 157.346 232.96 165.238 225.968 170.907C218.977 176.577 210.255 179.681 201.254 179.705ZM163.973 148.94C165.901 157.384 170.639 164.924 177.411 170.324C184.183 175.724 192.588 178.665 201.249 178.665C209.911 178.665 218.316 175.724 225.087 170.324C231.859 164.924 236.597 157.384 238.525 148.94H229.248C227.774 150.744 225.862 152.142 223.696 153C223.585 153.555 223.397 154.091 223.138 154.594C221.493 157.71 217.87 157.892 215.2 156.735C213.985 156.213 212.915 155.401 212.084 154.37C210.659 155.427 209.032 156.18 207.304 156.583C207.202 157.987 206.563 159.299 205.52 160.244C204.476 161.189 203.108 161.696 201.701 161.658C200.506 161.701 199.331 161.344 198.362 160.643C197.393 159.943 196.686 158.939 196.352 157.791C195.811 157.787 195.271 157.736 194.738 157.639C194.391 157.574 194.051 157.475 193.723 157.344L193.439 157.233C192.847 157.025 192.282 156.749 191.754 156.41C191.351 156.14 190.968 155.841 190.607 155.517C188.28 154.893 186.286 153.391 185.045 151.325C184.593 150.585 184.332 149.745 184.284 148.879L163.973 148.94Z" fill="#231F20"/>
<path d="M176.204 153.172C176.185 152.921 176.073 152.686 175.89 152.512C175.695 152.349 175.446 152.265 175.193 152.276C174.939 152.288 174.699 152.394 174.519 152.573L173.068 154.329C172.9 154.528 172.81 154.78 172.814 155.04C172.839 155.291 172.957 155.524 173.145 155.693C173.333 155.862 173.577 155.955 173.829 155.953C174.081 155.943 174.318 155.833 174.489 155.649L175.94 153.883C176.117 153.689 176.211 153.434 176.204 153.172Z" fill="#D1D3D4"/>
<path d="M225.411 159.953C225.04 159.103 224.555 158.307 223.97 157.588C223.828 157.471 223.658 157.395 223.476 157.368C223.295 157.34 223.109 157.363 222.939 157.433C222.77 157.502 222.622 157.617 222.512 157.764C222.402 157.911 222.334 158.085 222.316 158.268V158.531C222.356 158.653 222.418 158.767 222.498 158.866C222.984 159.49 223.389 160.172 223.706 160.896C223.768 161.006 223.851 161.101 223.951 161.178C224.05 161.255 224.163 161.311 224.285 161.343C224.538 161.411 224.807 161.378 225.036 161.252C225.251 161.121 225.411 160.915 225.482 160.673V160.409C225.498 160.253 225.473 160.096 225.411 159.953Z" fill="#D1D3D4"/>
<path d="M209.466 163.15C209.196 163.15 208.938 163.257 208.748 163.447C208.558 163.638 208.451 163.896 208.451 164.165V166.713C208.464 166.973 208.576 167.218 208.765 167.398C208.954 167.577 209.205 167.677 209.466 167.677C209.726 167.677 209.977 167.577 210.166 167.398C210.355 167.218 210.468 166.973 210.481 166.713V164.165C210.481 163.896 210.374 163.638 210.183 163.447C209.993 163.257 209.735 163.15 209.466 163.15Z" fill="#D1D3D4"/>
<path d="M191.236 161.617C191.165 161.375 191.005 161.169 190.79 161.039C190.679 160.973 190.557 160.93 190.43 160.912C190.302 160.895 190.173 160.903 190.049 160.937C189.927 160.968 189.813 161.024 189.714 161.101C189.614 161.177 189.531 161.274 189.47 161.384L188.191 164.297C188.067 164.526 188.031 164.793 188.09 165.048C188.162 165.289 188.321 165.496 188.536 165.626C188.766 165.752 189.035 165.785 189.288 165.718C189.408 165.687 189.522 165.633 189.621 165.558C189.72 165.483 189.804 165.389 189.866 165.281L191.145 162.368C191.265 162.137 191.298 161.87 191.236 161.617Z" fill="#D1D3D4"/>
<path d="M200.229 169.544C200.217 169.288 200.117 169.044 199.945 168.854C199.76 168.675 199.513 168.573 199.255 168.57C199.001 168.576 198.758 168.677 198.575 168.854C198.483 168.944 198.411 169.051 198.362 169.17C198.313 169.289 198.289 169.416 198.291 169.544C198.356 170.138 198.356 170.737 198.291 171.331C198.291 171.503 198.291 171.676 198.199 171.838C198.135 172.092 198.171 172.361 198.301 172.589C198.363 172.698 198.446 172.793 198.546 172.87C198.645 172.947 198.758 173.003 198.879 173.036C199.126 173.091 199.385 173.052 199.605 172.926C199.825 172.8 199.989 172.597 200.067 172.356C200.273 171.434 200.328 170.484 200.229 169.544Z" fill="#D1D3D4"/>
<path d="M219.829 167.667L219.24 166.195C219.21 166.074 219.15 165.963 219.068 165.87C219 165.763 218.905 165.676 218.793 165.616C218.685 165.544 218.558 165.506 218.428 165.505C218.302 165.469 218.169 165.469 218.042 165.505C217.801 165.577 217.595 165.736 217.464 165.951C217.338 166.181 217.305 166.45 217.372 166.702L217.921 168.154C217.941 168.281 218.001 168.399 218.093 168.489C218.157 168.595 218.248 168.683 218.357 168.743C218.468 168.81 218.593 168.848 218.722 168.854C218.849 168.89 218.982 168.89 219.108 168.854C219.229 168.821 219.343 168.765 219.442 168.688C219.541 168.612 219.624 168.516 219.687 168.408C219.762 168.301 219.813 168.18 219.838 168.052C219.862 167.925 219.859 167.793 219.829 167.667Z" fill="#D1D3D4"/>
<path d="M182.954 164.987C182.948 164.733 182.846 164.49 182.67 164.307C182.483 164.136 182.238 164.041 181.985 164.041C181.731 164.041 181.487 164.136 181.299 164.307C180.847 164.856 180.472 165.464 180.183 166.114C180.114 166.221 180.072 166.343 180.061 166.469C180.026 166.595 180.026 166.729 180.061 166.855C180.131 167.1 180.29 167.31 180.508 167.443C180.734 167.567 180.999 167.6 181.249 167.535C181.372 167.504 181.487 167.448 181.589 167.372C181.69 167.295 181.774 167.198 181.837 167.088C182.065 166.565 182.355 166.071 182.7 165.616C182.768 165.544 182.82 165.457 182.852 165.363C182.922 165.25 182.957 165.12 182.954 164.987Z" fill="#D1D3D4"/>
<path d="M182.051 156.552L181.482 156.136C181.32 156.085 181.147 156.085 180.985 156.136C180.749 156.219 180.546 156.375 180.406 156.583L178.011 159.851C177.947 159.962 177.905 160.085 177.89 160.212C177.874 160.34 177.884 160.469 177.92 160.592C177.989 160.837 178.149 161.048 178.366 161.181C178.593 161.304 178.857 161.337 179.107 161.272C179.345 161.194 179.55 161.036 179.686 160.825L182.081 157.567C182.207 157.338 182.24 157.069 182.172 156.816C182.145 156.723 182.104 156.634 182.051 156.552Z" fill="#D1D3D4"/>
<path d="M232.516 155.659L229.238 152.381C229.046 152.28 228.828 152.244 228.614 152.276C228.4 152.309 228.202 152.409 228.049 152.562C227.896 152.715 227.796 152.913 227.763 153.127C227.731 153.341 227.767 153.559 227.868 153.751L231.146 157.029C231.22 157.17 231.326 157.292 231.456 157.384C231.585 157.477 231.735 157.538 231.892 157.562C232.05 157.585 232.21 157.572 232.362 157.523C232.513 157.473 232.65 157.388 232.763 157.276C232.875 157.163 232.96 157.026 233.01 156.875C233.059 156.723 233.073 156.563 233.049 156.405C233.025 156.248 232.964 156.098 232.872 155.969C232.779 155.839 232.657 155.733 232.516 155.659Z" fill="#D1D3D4"/>
<path d="M153.915 171.564C155.309 168.391 156.855 165.285 158.553 162.247C158.928 161.461 159.473 160.767 160.147 160.217C160.492 159.944 160.915 159.791 161.355 159.78C161.794 159.769 162.225 159.901 162.583 160.156C162.884 160.511 163.091 160.935 163.187 161.391C163.283 161.846 163.263 162.318 163.131 162.764C162.777 164.916 161.941 166.96 160.685 168.743C161.207 166.468 162.353 164.383 163.994 162.724C164.27 162.379 164.626 162.107 165.031 161.93C165.436 161.753 165.877 161.677 166.318 161.709C166.781 161.826 167.191 162.094 167.485 162.47C169.322 164.642 168.145 167.931 166.886 170.488C167.577 168.398 169.026 166.642 170.946 165.566C171.225 165.36 171.557 165.238 171.903 165.217C172.249 165.195 172.593 165.274 172.895 165.444C173.443 165.89 173.342 166.743 173.169 167.474C172.693 169.355 172.065 171.195 171.292 172.975C171.787 171.565 172.718 170.349 173.951 169.504C175.26 168.803 177.3 169.362 177.503 170.833C177.511 171.638 177.263 172.424 176.793 173.077C175.515 175.421 174.666 177.975 174.286 180.618C174.16 181.131 174.214 181.672 174.438 182.151C174.683 182.465 174.958 182.754 175.26 183.013C176.367 184.242 175.686 186.211 174.671 187.51C173.034 189.511 170.796 190.933 168.288 191.565C165.781 192.198 163.137 192.007 160.746 191.022C153.955 187.946 151.002 178.202 153.915 171.564Z" fill="white"/>
<path d="M165.303 192.392C163.67 192.386 162.055 192.041 160.563 191.377C153.823 188.423 150.291 178.476 153.458 171.31C154.848 168.133 156.412 164.987 158.117 161.952C158.527 161.091 159.127 160.334 159.873 159.739C160.314 159.414 160.847 159.239 161.395 159.239C161.943 159.239 162.477 159.414 162.918 159.739C163.243 160.058 163.485 160.451 163.625 160.884C163.765 161.317 163.797 161.778 163.72 162.226C164.045 161.824 164.467 161.512 164.947 161.318C165.426 161.125 165.947 161.056 166.46 161.12C167.039 161.262 167.554 161.595 167.922 162.064C168.404 162.662 168.745 163.362 168.921 164.11C169.096 164.859 169.102 165.637 168.937 166.388C169.497 165.862 170.121 165.409 170.794 165.038C171.159 164.767 171.598 164.615 172.052 164.602C172.506 164.589 172.953 164.717 173.332 164.967C174.225 165.707 173.89 167.047 173.778 167.494C173.667 167.94 173.464 168.671 173.281 169.26C173.448 169.134 173.624 169.022 173.809 168.925C174.28 168.684 174.802 168.558 175.331 168.558C175.861 168.558 176.382 168.684 176.854 168.925C177.194 169.084 177.491 169.324 177.716 169.625C177.94 169.927 178.087 170.279 178.143 170.651C178.178 171.532 177.925 172.402 177.422 173.127V173.218C176.166 175.506 175.337 178.003 174.976 180.587C174.878 180.982 174.906 181.397 175.057 181.775C175.173 181.934 175.31 182.078 175.463 182.201C175.585 182.313 175.717 182.435 175.829 182.556C177.107 183.967 176.468 186.17 175.25 187.723C174.057 189.208 172.541 190.4 170.817 191.209C169.093 192.019 167.207 192.423 165.303 192.392ZM161.497 160.308C161.133 160.319 160.78 160.435 160.482 160.643C159.864 161.146 159.371 161.785 159.04 162.51C157.356 165.504 155.803 168.6 154.422 171.767C151.499 178.456 154.757 187.713 161.01 190.463C163.292 191.414 165.82 191.6 168.216 190.995C170.613 190.389 172.749 189.024 174.306 187.104C175.22 185.947 175.798 184.252 174.925 183.287C174.838 183.188 174.743 183.097 174.641 183.013C174.406 182.822 174.2 182.596 174.032 182.343C173.749 181.76 173.674 181.097 173.819 180.466C174.203 177.762 175.069 175.149 176.377 172.752L176.438 172.65C176.818 172.116 177.027 171.479 177.036 170.823C177 170.618 176.914 170.426 176.787 170.261C176.66 170.097 176.494 169.966 176.306 169.879C175.988 169.728 175.642 169.65 175.291 169.65C174.939 169.65 174.593 169.728 174.276 169.879C173.142 170.672 172.292 171.807 171.85 173.117C171.821 173.179 171.781 173.235 171.731 173.282C171.681 173.328 171.622 173.364 171.558 173.388C171.493 173.411 171.425 173.422 171.357 173.419C171.289 173.416 171.221 173.4 171.16 173.371C171.097 173.344 171.04 173.306 170.993 173.257C170.945 173.208 170.908 173.15 170.883 173.087C170.859 173.023 170.847 172.955 170.849 172.887C170.851 172.819 170.867 172.752 170.896 172.691C171.656 170.937 172.274 169.124 172.743 167.271C172.936 166.509 172.905 166.012 172.641 165.799C172.378 165.586 171.505 165.87 171.281 165.992C169.984 166.707 168.904 167.759 168.155 169.037C167.922 169.615 167.668 170.173 167.414 170.691C167.357 170.809 167.257 170.901 167.134 170.948C167.012 170.995 166.876 170.994 166.754 170.945C166.631 170.895 166.531 170.8 166.475 170.68C166.418 170.559 166.409 170.422 166.45 170.295C166.645 169.699 166.9 169.125 167.211 168.58C168.003 166.55 168.46 164.327 167.15 162.784C166.926 162.497 166.617 162.288 166.267 162.185C165.75 162.084 165.13 162.388 164.42 163.099C164.055 163.468 163.716 163.861 163.405 164.276C162.948 165.986 162.192 167.601 161.172 169.047C161.104 169.148 161.002 169.221 160.885 169.254C160.769 169.288 160.644 169.279 160.532 169.23C160.421 169.179 160.331 169.092 160.275 168.983C160.22 168.875 160.203 168.75 160.228 168.631C160.629 166.885 161.386 165.24 162.451 163.799C162.542 163.434 162.613 163.058 162.674 162.693C162.847 161.678 162.674 160.927 162.299 160.561C162.074 160.377 161.787 160.286 161.497 160.308Z" fill="#231F20"/>
<path d="M249.152 171.27C247.758 168.09 246.216 164.987 244.524 161.962C244.15 161.173 243.602 160.479 242.92 159.932C242.576 159.662 242.154 159.511 241.717 159.5C241.28 159.489 240.851 159.619 240.494 159.872C240.19 160.225 239.98 160.649 239.882 161.105C239.785 161.56 239.803 162.033 239.936 162.48C240.294 164.633 241.133 166.676 242.392 168.458C241.87 166.184 240.725 164.099 239.084 162.44C238.804 162.098 238.448 161.828 238.044 161.652C237.64 161.475 237.199 161.397 236.759 161.425C236.294 161.542 235.882 161.814 235.592 162.196C233.745 164.358 234.932 167.657 236.181 170.204C235.496 168.113 234.045 166.358 232.121 165.292C231.844 165.083 231.512 164.959 231.166 164.936C230.82 164.912 230.474 164.99 230.172 165.16C229.624 165.606 229.725 166.469 229.908 167.19C230.375 169.074 231.003 170.915 231.786 172.691C231.286 171.283 230.356 170.068 229.126 169.22C227.807 168.519 225.767 169.078 225.564 170.549C225.564 171.357 225.816 172.145 226.284 172.803C227.567 175.144 228.413 177.7 228.781 180.344C228.904 180.857 228.854 181.395 228.639 181.877C228.388 182.189 228.11 182.478 227.807 182.74C226.701 183.958 227.391 185.937 228.406 187.226C230.041 189.228 232.277 190.65 234.783 191.282C237.289 191.915 239.932 191.724 242.321 190.738C249.112 187.672 252.065 177.928 249.152 171.27Z" fill="white"/>
<path d="M237.764 192.118C235.891 192.132 234.038 191.725 232.343 190.928C230.647 190.13 229.153 188.962 227.969 187.51C226.761 185.957 226.112 183.765 227.401 182.344C227.512 182.222 227.634 182.11 227.756 181.998C227.915 181.877 228.052 181.729 228.162 181.562C228.319 181.186 228.347 180.768 228.243 180.374C227.881 177.793 227.052 175.3 225.797 173.016L225.746 172.914C225.243 172.189 224.99 171.319 225.026 170.438C225.081 170.064 225.229 169.711 225.456 169.41C225.683 169.108 225.982 168.869 226.325 168.712C226.797 168.474 227.319 168.35 227.847 168.35C228.376 168.35 228.898 168.474 229.37 168.712C229.55 168.812 229.723 168.924 229.888 169.047C229.705 168.458 229.542 167.87 229.4 167.281C229.289 166.844 228.944 165.495 229.837 164.754C230.216 164.505 230.663 164.379 231.117 164.391C231.57 164.404 232.009 164.555 232.374 164.825C233.047 165.197 233.67 165.65 234.232 166.175C234.067 165.424 234.072 164.646 234.248 163.897C234.423 163.149 234.765 162.449 235.247 161.851C235.616 161.385 236.131 161.056 236.708 160.917C237.214 160.859 237.726 160.93 238.198 161.121C238.67 161.313 239.086 161.619 239.408 162.013C239.332 161.563 239.366 161.101 239.505 160.667C239.645 160.233 239.886 159.838 240.21 159.516C240.653 159.194 241.186 159.021 241.733 159.021C242.28 159.021 242.813 159.194 243.255 159.516C244.006 160.106 244.607 160.864 245.011 161.729C246.706 164.774 248.269 167.9 249.66 171.077C252.806 178.243 249.274 188.19 242.555 191.144C241.043 191.799 239.411 192.131 237.764 192.118ZM227.837 169.372C227.484 169.371 227.136 169.455 226.822 169.615C226.631 169.698 226.464 169.826 226.334 169.989C226.205 170.152 226.118 170.344 226.081 170.549C226.101 171.208 226.313 171.846 226.69 172.386L226.741 172.478C228.06 174.874 228.927 177.492 229.299 180.202C229.448 180.83 229.373 181.491 229.086 182.069C228.918 182.325 228.713 182.555 228.477 182.75C228.377 182.832 228.282 182.92 228.193 183.013C227.32 184.028 227.908 185.673 228.812 186.83C230.369 188.749 232.506 190.113 234.902 190.718C237.298 191.324 239.826 191.138 242.108 190.189C248.361 187.439 251.629 178.182 248.696 171.503C247.315 168.357 245.762 165.241 244.087 162.236C243.75 161.515 243.258 160.878 242.646 160.369C242.391 160.172 242.082 160.058 241.761 160.044C241.439 160.029 241.121 160.114 240.85 160.288C240.433 160.643 240.301 161.303 240.474 162.409C240.535 162.784 240.616 163.15 240.707 163.525C241.765 164.965 242.518 166.606 242.92 168.347C242.946 168.465 242.93 168.589 242.877 168.697C242.824 168.806 242.735 168.893 242.626 168.946C242.516 168.996 242.392 169.006 242.275 168.975C242.158 168.943 242.056 168.872 241.986 168.773C240.961 167.325 240.201 165.706 239.743 163.992C239.432 163.58 239.093 163.19 238.728 162.825C238.028 162.104 237.399 161.81 236.881 161.912C236.535 162.01 236.229 162.216 236.008 162.5C234.699 164.043 235.155 166.317 235.937 168.296C236.251 168.84 236.51 169.415 236.708 170.011C236.734 170.078 236.747 170.149 236.745 170.221C236.744 170.292 236.728 170.363 236.7 170.428C236.671 170.494 236.63 170.553 236.578 170.602C236.526 170.652 236.465 170.691 236.399 170.717C236.332 170.743 236.261 170.755 236.19 170.754C236.118 170.752 236.047 170.737 235.982 170.708C235.916 170.679 235.857 170.638 235.808 170.586C235.758 170.535 235.719 170.474 235.693 170.407C235.44 169.9 235.186 169.341 234.952 168.753C234.207 167.476 233.13 166.424 231.836 165.708C231.613 165.586 230.821 165.21 230.466 165.525C230.111 165.84 230.182 166.225 230.375 166.987C230.842 168.84 231.46 170.653 232.222 172.407C232.279 172.533 232.283 172.677 232.233 172.806C232.184 172.936 232.085 173.04 231.958 173.097C231.832 173.153 231.688 173.157 231.558 173.108C231.429 173.058 231.325 172.959 231.268 172.833C230.598 171.422 229.959 170.194 228.832 169.605C228.525 169.447 228.183 169.367 227.837 169.372Z" fill="#231F20"/>
<path d="M122.419 222.02C122.346 222.034 122.27 222.034 122.196 222.02C122.136 221.991 122.082 221.95 122.038 221.9C121.994 221.85 121.96 221.792 121.938 221.728C121.916 221.665 121.907 221.598 121.912 221.532C121.916 221.465 121.933 221.4 121.963 221.34C129.849 204.978 152.199 176.68 152.413 176.396C152.497 176.291 152.62 176.224 152.755 176.209C152.889 176.195 153.023 176.235 153.128 176.32C153.233 176.404 153.3 176.527 153.314 176.662C153.329 176.796 153.289 176.93 153.204 177.035C152.981 177.309 130.712 205.516 122.866 221.786C122.818 221.86 122.751 221.92 122.673 221.961C122.595 222.002 122.508 222.022 122.419 222.02Z" fill="#231F20"/>
<path d="M141.958 237.174C141.881 237.173 141.804 237.155 141.734 237.122C141.664 237.088 141.602 237.04 141.552 236.981C141.469 236.876 141.431 236.742 141.446 236.609C141.462 236.476 141.529 236.354 141.633 236.27C141.836 236.108 161.842 220.03 167.607 194.879C167.639 194.748 167.72 194.636 167.834 194.565C167.948 194.495 168.086 194.473 168.216 194.503C168.281 194.517 168.343 194.545 168.398 194.583C168.452 194.622 168.498 194.671 168.533 194.728C168.568 194.785 168.592 194.848 168.602 194.914C168.612 194.98 168.608 195.047 168.592 195.112C162.756 220.568 142.476 236.9 142.273 237.062C142.182 237.13 142.072 237.169 141.958 237.174Z" fill="#231F20"/>
<path d="M204.137 84.9947C204.137 89.887 199.833 93.8658 194.525 93.8658C189.216 93.8658 184.913 89.887 184.913 84.9947C184.913 80.1024 189.216 78.5596 194.525 78.5596C199.833 78.5596 204.137 80.0516 204.137 84.9947Z" fill="#231F20"/>
<path d="M194.525 94.3227C188.953 94.3227 184.375 90.1104 184.375 84.9441C184.375 81.7773 186.131 78.0015 194.525 78.0015C202.919 78.0015 204.675 81.7773 204.675 84.9441C204.645 90.0698 200.107 94.3227 194.525 94.3227ZM194.525 79.0165C188.435 79.0165 185.39 81.0465 185.39 84.9441C185.39 89.5623 189.45 93.3077 194.525 93.3077C199.6 93.3077 203.66 89.5623 203.66 84.9441C203.63 81.0059 200.564 79.0165 194.525 79.0165Z" fill="#231F20"/>
<path d="M229.157 84.9947C229.157 89.887 224.853 93.8658 219.545 93.8658C214.236 93.8658 209.933 89.887 209.933 84.9947C209.933 80.1024 214.236 78.5596 219.545 78.5596C224.853 78.5596 229.157 80.0516 229.157 84.9947Z" fill="#231F20"/>
<path d="M219.545 94.3227C213.962 94.3227 209.395 90.1104 209.395 84.9441C209.395 81.7773 211.151 78.0015 219.545 78.0015C227.939 78.0015 229.695 81.7773 229.695 84.9441C229.664 90.0698 225.127 94.3227 219.545 94.3227ZM219.545 79.0165C213.455 79.0165 210.41 81.0465 210.41 84.9441C210.41 89.5623 214.47 93.3077 219.545 93.3077C224.62 93.3077 228.68 89.5623 228.68 84.9441C228.649 81.0059 225.584 79.0165 219.545 79.0165Z" fill="#231F20"/>
<path d="M209.933 85.4514C209.832 85.4494 209.735 85.4215 209.648 85.3702C206.36 83.1677 204.573 85.1875 204.523 85.2687C204.483 85.3283 204.431 85.3788 204.371 85.417C204.311 85.4551 204.243 85.4801 204.172 85.4902C204.101 85.5004 204.029 85.4954 203.96 85.4758C203.892 85.4561 203.828 85.4221 203.773 85.3761C203.718 85.33 203.674 85.2729 203.643 85.2085C203.612 85.1442 203.595 85.0739 203.593 85.0025C203.591 84.931 203.604 84.8599 203.631 84.7939C203.658 84.7278 203.699 84.6683 203.751 84.6191C203.751 84.6191 206.187 81.8279 210.217 84.5278C210.305 84.5893 210.371 84.6772 210.406 84.7788C210.441 84.8804 210.443 84.9905 210.411 85.0932C210.38 85.196 210.316 85.286 210.23 85.3504C210.144 85.4147 210.04 85.4501 209.933 85.4514Z" fill="#231F20"/>
<path d="M206.502 109.355C205.395 109.402 204.297 109.142 203.328 108.605C202.359 108.068 201.557 107.273 201.011 106.31C200.951 106.184 200.943 106.041 200.989 105.91C201.034 105.778 201.13 105.671 201.254 105.609C201.316 105.578 201.383 105.56 201.452 105.556C201.521 105.551 201.591 105.561 201.656 105.583C201.721 105.606 201.781 105.642 201.832 105.688C201.884 105.734 201.925 105.79 201.955 105.853C202.817 107.619 205 108.33 206.766 108.248C208.307 108.147 209.784 107.596 211.014 106.664C212.245 105.731 213.175 104.457 213.688 103.001C213.731 102.866 213.826 102.754 213.951 102.69C214.014 102.657 214.082 102.638 214.151 102.632C214.221 102.626 214.291 102.634 214.358 102.656C214.425 102.677 214.486 102.711 214.54 102.757C214.593 102.802 214.637 102.857 214.669 102.919C214.701 102.981 214.721 103.049 214.727 103.119C214.732 103.189 214.724 103.259 214.703 103.326C214.133 104.989 213.081 106.446 211.68 107.509C210.278 108.572 208.593 109.193 206.837 109.294L206.502 109.355Z" fill="#231F20"/>
<path d="M198.473 108.472C198.36 108.449 198.258 108.39 198.181 108.303C198.105 108.216 198.06 108.107 198.052 107.991C198.044 107.876 198.073 107.762 198.137 107.665C198.2 107.568 198.293 107.495 198.402 107.457C198.815 107.394 199.206 107.235 199.546 106.993C199.886 106.752 200.166 106.435 200.361 106.066C200.579 105.711 200.712 105.31 200.751 104.895C200.79 104.479 200.733 104.061 200.585 103.671C200.549 103.607 200.527 103.535 200.52 103.462C200.513 103.388 200.522 103.314 200.546 103.244C200.57 103.174 200.608 103.11 200.658 103.056C200.708 103.002 200.769 102.959 200.836 102.929C200.904 102.9 200.977 102.885 201.051 102.886C201.125 102.887 201.198 102.903 201.265 102.934C201.332 102.965 201.392 103.009 201.441 103.064C201.49 103.12 201.527 103.184 201.549 103.255C201.748 103.799 201.824 104.379 201.774 104.956C201.723 105.533 201.546 106.091 201.255 106.592C200.965 107.093 200.568 107.523 200.092 107.853C199.617 108.184 199.075 108.405 198.504 108.502L198.473 108.472Z" fill="#231F20"/>
<path d="M194.099 106.777C193.755 107.009 193.433 107.271 193.134 107.559C192.822 107.818 192.607 108.176 192.525 108.574C192.51 108.67 192.514 108.768 192.537 108.863C192.56 108.958 192.603 109.047 192.662 109.124C192.721 109.202 192.795 109.267 192.879 109.316C192.964 109.364 193.058 109.395 193.155 109.406C193.304 109.38 193.445 109.319 193.565 109.227C193.685 109.135 193.781 109.015 193.845 108.878C194.233 108.202 194.36 107.408 194.2 106.645" fill="#D1D3D4"/>
<path d="M195.895 103.082C195.491 103 195.08 102.952 194.667 102.94C194.269 102.896 193.868 102.989 193.53 103.204C193.453 103.26 193.388 103.331 193.338 103.413C193.289 103.494 193.256 103.585 193.242 103.679C193.228 103.774 193.232 103.87 193.256 103.963C193.279 104.055 193.321 104.142 193.378 104.219C193.503 104.309 193.647 104.367 193.799 104.388C193.952 104.409 194.107 104.393 194.251 104.341C195.002 104.141 195.654 103.676 196.088 103.031" fill="#D1D3D4"/>
<path d="M223.93 218.64C199.894 218.315 176.001 205.445 175.768 205.313C175.649 205.248 175.561 205.139 175.523 205.01C175.485 204.88 175.5 204.741 175.565 204.623C175.629 204.504 175.738 204.416 175.868 204.378C175.997 204.34 176.137 204.355 176.255 204.42C176.488 204.551 200.168 217.3 223.96 217.615C224.095 217.615 224.224 217.668 224.319 217.763C224.414 217.858 224.467 217.987 224.467 218.122C224.467 218.257 224.414 218.386 224.319 218.481C224.224 218.576 224.095 218.63 223.96 218.63L223.93 218.64Z" fill="#231F20"/>
</svg>
